<?xml version="1.0" encoding="utf-8"?>
<!-- Generator: Adobe Illustrator 18.1.1, SVG Export Plug-In . SVG Version: 6.00 Build 0)  -->
<svg version="1.1" id="Layer_1" xmlns="http://www.w3.org/2000/svg" xmlns:xlink="http://www.w3.org/1999/xlink" x="0px" y="0px"
	 viewBox="0 0 216 216" enable-background="new 0 0 216 216" xml:space="preserve">
<path fill="#EFB121" d="M72.9,89.1c0,0-3.8-3-4.9-2.7c-1.1,0.3,0.8-5,18.9-3.5c0,0,3.7,0.9,16,3c0,0,10.5,3.6,17.5,3.2
	s17.8-3.2,17.8-3.2l-4.5,5.6c0,0-7,3.2-16.1,3.3c-9.1,0-15.7-2.6-22.4-3.9C88.6,89.4,82.3,86.4,72.9,89.1z"/>
<path fill="#006532" d="M56.5,48.7c0,0,4.8-4.2,9.1-8C69.9,36.9,82,17.4,82,17.4s4.7,2.1,10.3,10.6c0,0,12.5-21.6,14.2-19
	c1.7,2.5,11.6,14,19.8,26.2c0,0,10.8-14.4,12.9-13.1S151,39,156.2,46.6c0,0,2,3,1.2,7.2c0,0-17.1-16-18-18.9c0,0-6.6,5-5.7,7.9
	s5.6,6.3,6,11s-7.8,9.7-16.4,7.6c0,0,9.9-1.7,1.7-15.7c0,0-14.7-17.8-17.9-19.5s-4.9,0-8.8,5.1c-3.9,5.1-15.5,20.3-21.1,18.2
	c0,0,10.3-7.8,9.5-14.2c-0.9-6.5-3.4-7.8-9.5-1.8c0,0-8,11.5-12.8,12.8S56.5,48.7,56.5,48.7z"/>
<path fill="#EFB121" d="M74.9,93.4c0,0,7.7-4,25.6,4.3c0,0,12.4,3.9,27.8,0c0,0-11.6,9.6-31.4,4.3c0,0-11-6.2-18.7-3.6L74.9,93.4z"
	/>
<path fill="#006634" d="M125.5,144.9c0,0-5.5-23.3,33.4-39.8c0,0,26-10.5,38.4-48.4c0,0,5-11,6.9-24.2c0,0-5.9-3.7-18.3,26
	c0,0-9.6,17.4-26.5,24.7c0,0,2-5.9,5.4-16s2-16.9,2.9-21c0,0-5.9-2.3-8.2,8.7c0,0-2.3,11.4-11.9,19.6c-9.6,8.2-9.2,3.7-22.2,24.7
	C125.2,99.2,117.3,111.1,125.5,144.9z"/>
<g>
	<path fill="#EFB121" d="M107.8,85.9c0,0-17.2-7.2-24.6-7.2c0,0,19.8-3.5,24.6,2.8V85.9z"/>
	<path fill="#EFB121" d="M107.7,85.9c0,0,17.2-7.2,24.6-7.2c0,0-19.8-3.5-24.6,2.8V85.9z"/>
</g>
<g>
	<path fill="#006735" d="M106.9,77.6c0,0-3.5-7.3-7.8-7.6v-7.5c0,0,7.5-11.7,7.8-26l0.1,22.7l-1.2,2.4v3.2l1.2,1L106.9,77.6z"/>
	<path fill="#006735" d="M107.3,77.6c0,0,3.5-7.3,7.8-7.6v-7.5c0,0-7.5-11.7-7.8-26l-0.1,22.7l1.2,2.4v3.2l-1.2,1L107.3,77.6z"/>
</g>
<g>
	<path fill="#EFB121" d="M117.4,57l-0.1,2.7"/>
	<path fill="#EFB121" d="M107.8,82.4c0,0,14-5.5,21.4-5.5c1.3,0.3-11.5-1.9-21.4,2.8V82.4z"/>
</g>
<path fill="#EFB121" d="M107.8,82.4c0,0-14-5.5-21.4-5.5c-1.3,0.3,11.5-1.9,21.4,2.8"/>
<path fill="#006634" d="M91.5,144.9c0,0,5.5-23.3-33.4-39.8c0,0-26-10.5-38.4-48.4c0,0-5-11-6.9-24.2c0,0,5.9-3.7,18.3,26
	c0,0,9.6,17.4,26.5,24.7c0,0-2-5.9-5.4-16c-3.3-10.1-2-16.9-2.9-21c0,0,5.9-2.3,8.2,8.7c0,0,2.3,11.4,11.9,19.6s9.2,3.7,22.2,24.7
	C91.8,99.2,99.7,111.1,91.5,144.9z"/>
<rect x="54.1" y="133.9" fill="#FFFFFF" width="121.7" height="33.7"/>
<g>
	<g>
		<linearGradient id="SVGID_1_" gradientUnits="userSpaceOnUse" x1="111.0889" y1="142.2727" x2="111.456" y2="149.5358">
			<stop  offset="0" style="stop-color:#F7941E"/>
			<stop  offset="1" style="stop-color:#F15A29"/>
		</linearGradient>
		<path fill="url(#SVGID_1_)" d="M49.6,146.1v2.9h2.9c0.7,0,1.2,0.1,1.5,0.4c0.3,0.3,0.4,0.6,0.4,1c0,0.4-0.1,0.8-0.4,1
			c-0.3,0.3-0.8,0.4-1.5,0.4h-6.2c-0.7,0-1.2-0.1-1.5-0.4c-0.3-0.3-0.4-0.6-0.4-1c0-0.4,0.1-0.8,0.4-1c0.3-0.3,0.8-0.4,1.5-0.4h0.4
			v-11.2h-0.4c-0.7,0-1.2-0.1-1.5-0.4c-0.3-0.3-0.4-0.6-0.4-1s0.1-0.8,0.4-1c0.3-0.3,0.8-0.4,1.5-0.4l6.6,0c1.9,0,3.5,0.5,4.6,1.6
			c1.1,1.1,1.7,2.3,1.7,3.9c0,0.8-0.2,1.6-0.6,2.4c-0.3,0.6-0.8,1.1-1.4,1.7c-0.7,0.5-1.4,1-2.1,1.2c-0.7,0.3-1.6,0.4-2.8,0.4H49.6z
			 M49.6,143.3h2.7c1.2,0,2.2-0.3,3-0.8c0.7-0.6,1.1-1.2,1.1-2c0-0.7-0.3-1.3-0.9-1.8c-0.6-0.5-1.4-0.8-2.5-0.8h-3.3V143.3z"/>
		<linearGradient id="SVGID_2_" gradientUnits="userSpaceOnUse" x1="111.0889" y1="142.2727" x2="111.456" y2="149.5358">
			<stop  offset="0" style="stop-color:#F7941E"/>
			<stop  offset="1" style="stop-color:#F15A29"/>
		</linearGradient>
		<path fill="url(#SVGID_2_)" d="M69.8,137.9v11.2h2.9c0.7,0,1.2,0.1,1.5,0.4c0.3,0.3,0.4,0.6,0.4,1c0,0.4-0.1,0.8-0.4,1
			c-0.3,0.3-0.8,0.4-1.5,0.4h-8.6c-0.7,0-1.2-0.1-1.5-0.4c-0.3-0.3-0.4-0.6-0.4-1c0-0.4,0.1-0.8,0.4-1c0.3-0.3,0.8-0.4,1.5-0.4H67
			v-11.2h-2.9c-0.7,0-1.2-0.1-1.5-0.4c-0.3-0.3-0.4-0.6-0.4-1s0.1-0.8,0.4-1c0.3-0.3,0.8-0.4,1.5-0.4l8.6,0c0.7,0,1.2,0.1,1.5,0.4
			c0.3,0.3,0.4,0.6,0.4,1s-0.1,0.8-0.4,1c-0.3,0.3-0.8,0.4-1.5,0.4H69.8z"/>
		<linearGradient id="SVGID_3_" gradientUnits="userSpaceOnUse" x1="111.0889" y1="142.2727" x2="111.456" y2="149.5358">
			<stop  offset="0" style="stop-color:#F7941E"/>
			<stop  offset="1" style="stop-color:#F15A29"/>
		</linearGradient>
		<path fill="url(#SVGID_3_)" d="M82,140.4v8.6h1c0.7,0,1.2,0.1,1.5,0.4c0.3,0.3,0.4,0.6,0.4,1c0,0.4-0.1,0.8-0.4,1
			c-0.3,0.3-0.8,0.4-1.5,0.4h-3.8c-0.7,0-1.2-0.1-1.5-0.4c-0.3-0.3-0.4-0.6-0.4-1c0-0.4,0.1-0.7,0.4-1c0.3-0.3,0.7-0.4,1.3-0.4
			v-11.2h-0.4c-0.7,0-1.2-0.1-1.5-0.4c-0.3-0.3-0.4-0.6-0.4-1s0.1-0.8,0.4-1c0.3-0.3,0.8-0.4,1.5-0.4l3.3,0l7.3,11.5v-8.6h-1
			c-0.7,0-1.2-0.1-1.5-0.4c-0.3-0.3-0.4-0.6-0.4-1s0.1-0.8,0.4-1c0.3-0.3,0.8-0.4,1.5-0.4l3.8,0c0.7,0,1.2,0.1,1.5,0.4
			c0.3,0.3,0.4,0.6,0.4,1c0,0.4-0.1,0.8-0.4,1c-0.3,0.3-0.7,0.4-1.3,0.4v14h-2.8L82,140.4z"/>
		<linearGradient id="SVGID_4_" gradientUnits="userSpaceOnUse" x1="111.0889" y1="142.2727" x2="111.456" y2="149.5358">
			<stop  offset="0" style="stop-color:#F7941E"/>
			<stop  offset="1" style="stop-color:#F15A29"/>
		</linearGradient>
		<path fill="url(#SVGID_4_)" d="M99.1,140.4v8.6h1c0.7,0,1.2,0.1,1.5,0.4c0.3,0.3,0.4,0.6,0.4,1c0,0.4-0.1,0.8-0.4,1
			c-0.3,0.3-0.8,0.4-1.5,0.4h-3.8c-0.7,0-1.2-0.1-1.5-0.4c-0.3-0.3-0.4-0.6-0.4-1c0-0.4,0.1-0.7,0.4-1c0.3-0.3,0.7-0.4,1.3-0.4
			v-11.2h-0.4c-0.7,0-1.2-0.1-1.5-0.4c-0.3-0.3-0.4-0.6-0.4-1s0.1-0.8,0.4-1c0.3-0.3,0.8-0.4,1.5-0.4l3.3,0l7.3,11.5v-8.6h-1
			c-0.7,0-1.2-0.1-1.5-0.4c-0.3-0.3-0.4-0.6-0.4-1s0.1-0.8,0.4-1c0.3-0.3,0.8-0.4,1.5-0.4l3.8,0c0.7,0,1.2,0.1,1.5,0.4
			c0.3,0.3,0.4,0.6,0.4,1c0,0.4-0.1,0.8-0.4,1s-0.7,0.4-1.3,0.4v14h-2.8L99.1,140.4z"/>
		<linearGradient id="SVGID_5_" gradientUnits="userSpaceOnUse" x1="111.0889" y1="142.2727" x2="111.456" y2="149.5358">
			<stop  offset="0" style="stop-color:#F7941E"/>
			<stop  offset="1" style="stop-color:#F15A29"/>
		</linearGradient>
		<path fill="url(#SVGID_5_)" d="M123.3,147.3h-6.9l-0.7,1.7h0.7c0.7,0,1.2,0.1,1.5,0.4c0.3,0.3,0.4,0.6,0.4,1c0,0.4-0.1,0.8-0.4,1
			c-0.3,0.3-0.8,0.4-1.5,0.4h-3.9c-0.7,0-1.2-0.1-1.5-0.4c-0.3-0.3-0.4-0.6-0.4-1s0.2-0.8,0.5-1c0.3-0.3,0.8-0.4,1.5-0.4l4.5-11.2
			h-1.9c-0.7,0-1.2-0.1-1.5-0.4c-0.3-0.3-0.4-0.6-0.4-1s0.1-0.8,0.4-1c0.3-0.3,0.8-0.4,1.5-0.4l6.2,0l5.7,14c0.7,0,1.1,0.1,1.3,0.2
			c0.4,0.3,0.6,0.7,0.6,1.2c0,0.4-0.1,0.8-0.4,1c-0.3,0.3-0.8,0.4-1.5,0.4h-3.9c-0.7,0-1.2-0.1-1.5-0.4c-0.3-0.3-0.4-0.6-0.4-1
			c0-0.4,0.1-0.8,0.4-1c0.3-0.3,0.8-0.4,1.5-0.4h0.7L123.3,147.3z M122.1,144.5l-2.3-5.7l-2.3,5.7H122.1z"/>
		<linearGradient id="SVGID_6_" gradientUnits="userSpaceOnUse" x1="111.0889" y1="142.2727" x2="111.456" y2="149.5358">
			<stop  offset="0" style="stop-color:#F7941E"/>
			<stop  offset="1" style="stop-color:#F15A29"/>
		</linearGradient>
		<path fill="url(#SVGID_6_)" d="M141.5,135.8c0.2-0.2,0.4-0.4,0.6-0.5c0.2-0.1,0.4-0.2,0.7-0.2c0.4,0,0.8,0.1,1,0.4
			c0.3,0.3,0.4,0.8,0.4,1.5v2.4c0,0.7-0.1,1.2-0.4,1.5c-0.3,0.3-0.6,0.4-1,0.4c-0.4,0-0.7-0.1-0.9-0.3c-0.2-0.2-0.4-0.6-0.5-1.2
			c-0.1-0.4-0.2-0.7-0.4-0.9c-0.4-0.4-0.9-0.8-1.6-1s-1.4-0.4-2.1-0.4c-0.9,0-1.6,0.2-2.4,0.6c-0.7,0.4-1.3,1-1.9,1.8
			s-0.8,1.8-0.8,3v1.9c0,1.4,0.5,2.5,1.5,3.4c1,0.9,2.4,1.4,4.2,1.4c1.1,0,2-0.1,2.7-0.4c0.4-0.2,0.9-0.5,1.4-1
			c0.3-0.3,0.5-0.5,0.7-0.6c0.2-0.1,0.4-0.1,0.6-0.1c0.4,0,0.7,0.1,1,0.4s0.4,0.6,0.4,1s-0.2,0.8-0.6,1.3c-0.6,0.7-1.3,1.2-2.2,1.5
			c-1.2,0.5-2.5,0.8-4,0.8c-1.7,0-3.2-0.3-4.6-1c-1.1-0.6-2-1.4-2.8-2.6c-0.8-1.2-1.2-2.5-1.2-3.9v-1.9c0-1.5,0.3-2.9,1-4.2
			c0.7-1.3,1.7-2.3,2.9-3c1.2-0.7,2.5-1,3.9-1c0.8,0,1.6,0.1,2.3,0.3C140.2,135.1,140.8,135.4,141.5,135.8z"/>
		<linearGradient id="SVGID_7_" gradientUnits="userSpaceOnUse" x1="111.0889" y1="142.2727" x2="111.456" y2="149.5358">
			<stop  offset="0" style="stop-color:#F7941E"/>
			<stop  offset="1" style="stop-color:#F15A29"/>
		</linearGradient>
		<path fill="url(#SVGID_7_)" d="M152.9,137.9v11.2h6.2v-2.7c0-0.7,0.1-1.2,0.4-1.5c0.3-0.3,0.6-0.4,1-0.4c0.4,0,0.8,0.1,1,0.4
			c0.3,0.3,0.4,0.8,0.4,1.5v5.6h-13.5c-0.7,0-1.2-0.1-1.5-0.4c-0.3-0.3-0.4-0.6-0.4-1c0-0.4,0.1-0.8,0.4-1c0.3-0.3,0.8-0.4,1.5-0.4
			h1.7v-11.2h-1.7c-0.7,0-1.2-0.1-1.5-0.4c-0.3-0.3-0.4-0.6-0.4-1s0.1-0.8,0.4-1c0.3-0.3,0.8-0.4,1.5-0.4l6.2,0
			c0.7,0,1.2,0.1,1.5,0.4c0.3,0.3,0.4,0.6,0.4,1s-0.1,0.8-0.4,1c-0.3,0.3-0.8,0.4-1.5,0.4H152.9z"/>
		<linearGradient id="SVGID_8_" gradientUnits="userSpaceOnUse" x1="111.0889" y1="142.2727" x2="111.456" y2="149.5358">
			<stop  offset="0" style="stop-color:#F7941E"/>
			<stop  offset="1" style="stop-color:#F15A29"/>
		</linearGradient>
		<path fill="url(#SVGID_8_)" d="M168.3,144.9v4.2h7.3v-1.5c0-0.7,0.1-1.2,0.4-1.5c0.3-0.3,0.6-0.4,1-0.4c0.4,0,0.8,0.1,1,0.4
			c0.3,0.3,0.4,0.8,0.4,1.5v4.4H165c-0.7,0-1.2-0.1-1.5-0.4c-0.3-0.3-0.4-0.6-0.4-1c0-0.4,0.1-0.8,0.4-1c0.3-0.3,0.8-0.4,1.5-0.4
			h0.4v-11.2H165c-0.7,0-1.2-0.1-1.5-0.4c-0.3-0.3-0.4-0.6-0.4-1s0.1-0.8,0.4-1c0.3-0.3,0.8-0.4,1.5-0.4l12.8,0v4.4
			c0,0.7-0.1,1.2-0.4,1.5c-0.3,0.3-0.6,0.4-1,0.4c-0.4,0-0.8-0.1-1-0.4c-0.3-0.3-0.4-0.8-0.4-1.5v-1.5h-6.7v4.1h2.5
			c0-0.7,0.1-1.2,0.2-1.4c0.3-0.5,0.7-0.7,1.2-0.7c0.4,0,0.8,0.1,1,0.4c0.3,0.3,0.4,0.8,0.4,1.5v3.3c0,0.6-0.1,1-0.2,1.3
			c-0.3,0.4-0.7,0.7-1.2,0.7c-0.5,0-0.9-0.2-1.2-0.7c-0.1-0.2-0.2-0.7-0.2-1.5H168.3z"/>
	</g>
</g>
<g>
	<g>
		<rect x="57.2" y="155.1" fill="none" width="107.4" height="18.4"/>
		<text transform="matrix(1 0 0 1 57.187 170.8086)" fill="#006634" font-family="'CourierNewPS-BoldMT'" font-size="24.8852">CLASSES</text>
	</g>
</g>
</svg>
